<svg width="86" height="106" viewBox="0 0 86 106" fill="none" xmlns="http://www.w3.org/2000/svg">
<path d="M52.5427 25.0902C50.2579 25.032 49.0575 26.4077 48.9124 27.7288L55.7994 27.8998C55.8284 26.5533 54.7404 25.1193 52.5427 25.0902ZM52.5427 25.0902C50.2579 25.032 49.0575 26.4077 48.9124 27.7288L55.7994 27.8998C55.8284 26.5533 54.7404 25.1193 52.5427 25.0902ZM52.5427 25.0902C50.2579 25.032 49.0575 26.4077 48.9124 27.7288L55.7994 27.8998C55.8284 26.5533 54.7404 25.1193 52.5427 25.0902ZM52.5427 25.0902C50.2579 25.032 49.0575 26.4077 48.9124 27.7288L55.7994 27.8998C55.8284 26.5533 54.7404 25.1193 52.5427 25.0902ZM52.5427 25.0902C50.2579 25.032 49.0575 26.4077 48.9124 27.7288L55.7994 27.8998C55.8284 26.5533 54.7404 25.1193 52.5427 25.0902ZM52.5427 25.0902C50.2579 25.032 49.0575 26.4077 48.9124 27.7288L55.7994 27.8998C55.8284 26.5533 54.7404 25.1193 52.5427 25.0902ZM52.5427 25.0902C50.2579 25.032 49.0575 26.4077 48.9124 27.7288L55.7994 27.8998C55.8284 26.5533 54.7404 25.1193 52.5427 25.0902ZM52.5427 25.0902C50.2579 25.032 49.0575 26.4077 48.9124 27.7288L55.7994 27.8998C55.8284 26.5533 54.7404 25.1193 52.5427 25.0902ZM52.5427 25.0902C50.2579 25.032 49.0575 26.4077 48.9124 27.7288L55.7994 27.8998C55.8284 26.5533 54.7404 25.1193 52.5427 25.0902ZM52.5427 25.0902C50.2579 25.032 49.0575 26.4077 48.9124 27.7288L55.7994 27.8998C55.8284 26.5533 54.7404 25.1193 52.5427 25.0902ZM52.5427 25.0902C50.2579 25.032 49.0575 26.4077 48.9124 27.7288L55.7994 27.8998C55.8284 26.5533 54.7404 25.1193 52.5427 25.0902ZM52.5427 25.0902C50.2579 25.032 49.0575 26.4077 48.9124 27.7288L55.7994 27.8998C55.8284 26.5533 54.7404 25.1193 52.5427 25.0902ZM31.3994 15.5696L31.1999 23.7109C32.2843 22.1642 34.2572 21.2725 36.4585 21.3308C40.4297 21.4181 41.9166 23.4234 41.8296 26.8371L41.6011 35.9537L37.5139 35.8664L37.7133 27.6669C37.7424 26.0328 37.0569 24.9155 35.0006 24.8573C33.0024 24.7991 31.6279 25.8909 31.0875 27.4959L30.888 35.6662L26.7754 35.5789L27.2614 15.566H4.57317V43.0614H85.4906V15.5696H31.3994ZM19.4859 35.8409C16.1131 35.7536 14.4013 33.9485 14.4557 31.168L14.6262 23.9984L11.112 23.5107L11.17 21.1597L14.6842 21.2471L14.7713 17.604L18.8839 17.7205L18.7968 21.3635L23.6239 21.48L23.5658 24.2313L18.7388 24.1149L18.5683 30.7094C18.5393 31.8558 19.0253 32.8021 20.3672 32.8312C21.68 32.8603 22.681 32.6892 23.7399 32.3435L24.4544 35.3824C23.1415 35.699 21.5132 35.8992 19.4823 35.8409H19.4859ZM59.7742 30.2217L48.916 29.9633C48.974 31.7685 50.4029 33.0605 52.8582 33.1187C54.4575 33.1478 56.0859 32.8603 57.2863 32.2889L58.8566 35.4988C57.2283 36.3286 55.172 36.7326 52.6551 36.6743C47.5996 36.5579 44.6547 33.7228 44.7708 29.0171C44.8868 24.457 47.6286 21.6183 52.6841 21.7638C57.6852 21.8803 59.883 24.8318 59.7705 29.392V30.2217H59.7742ZM52.5427 25.0902C50.2579 25.032 49.0575 26.4077 48.9124 27.7288L55.7994 27.8998C55.8284 26.5533 54.7404 25.1193 52.5427 25.0902ZM52.5427 25.0902C50.2579 25.032 49.0575 26.4077 48.9124 27.7288L55.7994 27.8998C55.8284 26.5533 54.7404 25.1193 52.5427 25.0902ZM52.5427 25.0902C50.2579 25.032 49.0575 26.4077 48.9124 27.7288L55.7994 27.8998C55.8284 26.5533 54.7404 25.1193 52.5427 25.0902ZM52.5427 25.0902C50.2579 25.032 49.0575 26.4077 48.9124 27.7288L55.7994 27.8998C55.8284 26.5533 54.7404 25.1193 52.5427 25.0902ZM52.5427 25.0902C50.2579 25.032 49.0575 26.4077 48.9124 27.7288L55.7994 27.8998C55.8284 26.5533 54.7404 25.1193 52.5427 25.0902ZM52.5427 25.0902C50.2579 25.032 49.0575 26.4077 48.9124 27.7288L55.7994 27.8998C55.8284 26.5533 54.7404 25.1193 52.5427 25.0902ZM52.5427 25.0902C50.2579 25.032 49.0575 26.4077 48.9124 27.7288L55.7994 27.8998C55.8284 26.5533 54.7404 25.1193 52.5427 25.0902ZM52.5427 25.0902C50.2579 25.032 49.0575 26.4077 48.9124 27.7288L55.7994 27.8998C55.8284 26.5533 54.7404 25.1193 52.5427 25.0902ZM52.5427 25.0902C50.2579 25.032 49.0575 26.4077 48.9124 27.7288L55.7994 27.8998C55.8284 26.5533 54.7404 25.1193 52.5427 25.0902ZM52.5427 25.0902C50.2579 25.032 49.0575 26.4077 48.9124 27.7288L55.7994 27.8998C55.8284 26.5533 54.7404 25.1193 52.5427 25.0902ZM52.5427 25.0902C50.2579 25.032 49.0575 26.4077 48.9124 27.7288L55.7994 27.8998C55.8284 26.5533 54.7404 25.1193 52.5427 25.0902Z" fill="#FCB017"/>
<path d="M0.257491 46.3621L0.170452 56.858H3.42717V53.1022H7.68484V56.858H12.715V59.7258H7.68484V66.5788C7.68484 67.7543 8.19982 68.7296 9.5997 68.7296C10.9996 68.7296 12.0005 68.5295 13.0849 68.1291L13.9118 71.2845C12.5409 71.6557 10.8545 71.9141 8.74019 71.9141C5.22598 71.9141 3.39816 70.0798 3.39816 67.1829V59.7549L0.141439 59.3837L0 73.8902L80.8594 75.2368L81.1169 47.7414L0.257491 46.3621ZM20.5703 71.4228H16.3126V56.858H20.5703V71.4228ZM20.5703 54.3614H16.3126V50.0888H20.5703V54.3614ZM49.2025 53.6481C48.1436 53.2477 47.0592 53.0185 45.6883 53.0185C44.2304 53.0185 43.574 54.0812 43.574 55.1984V56.8616H48.6295V59.7295H43.5994V71.4264H39.3707V59.7295H31.5118V71.4264H27.2832V59.7295L23.6275 59.3291V56.8616H27.2832V54.6234C27.2832 51.7265 29.227 49.8631 32.7703 49.8631C35.1421 49.8631 36.629 50.0924 37.8838 50.5219L37.1113 53.6772C36.0524 53.2769 34.968 53.0476 33.5971 53.0476C32.1392 53.0476 31.4828 54.1103 31.4828 55.2276V56.8908H39.3417V54.6525C39.3417 51.7556 41.2856 49.8922 44.8288 49.8922C47.1716 49.8922 48.6586 50.1215 49.9424 50.551L49.1989 53.6481H49.2025ZM55.5745 71.4228H51.3749V56.858H55.5745V71.4228ZM55.5745 54.3614H51.3749V50.0888H55.5745V54.3614ZM75.8873 71.4228H71.6587V62.9357C71.6587 61.2434 70.8862 60.097 68.7719 60.097C66.6575 60.097 65.3157 61.2434 64.7717 62.9357V71.4228H60.514V56.858H63.7127L64.1116 59.2382C65.225 57.575 67.4844 56.3994 69.8562 56.3994C74.0559 56.3994 75.8837 58.4338 75.8837 61.9604V71.4228H75.8873Z" fill="#FCB017"/>
<path d="M51.9443 91.3521C52.0313 93.6158 50.7439 95.4537 48.1726 95.5374C45.6303 95.6248 44.2014 93.8451 44.1144 91.6105C44.0563 89.3723 45.3728 87.509 47.9151 87.4252C50.4864 87.3379 51.8862 89.1176 51.9443 91.3521Z" fill="#FCB017"/>
<path d="M25.6874 78.5048L25.9449 86.879C26.9749 85.3323 28.4582 84.3278 30.772 84.2696C35.2291 84.1277 37.7133 87.4541 37.8294 91.8395C37.9708 96.1703 35.8021 99.6678 31.1419 99.8097C28.5996 99.8971 26.6847 98.8635 25.5424 97.1712L25.3139 99.5222L22.2856 99.6096L21.6292 78.5048H3.91311V106H84.8016V78.5048H25.6874ZM48.314 99.2347C43.1424 99.4057 40.2556 96.4833 40.1142 91.723C39.9727 86.9627 42.6855 83.8656 47.857 83.7237C53.0286 83.5527 55.8864 86.4751 56.0278 91.2354C56.1439 95.9957 53.4566 99.0928 48.314 99.2347ZM70.0303 98.1174L65.6312 92.8694H65.3447L61.2574 98.3758L58.2872 98.4631L58.2002 95.2532L62.1423 90.8933L58.2002 87.0501L58.0588 83.8402L61.058 83.7528L65.1706 88.7715H65.4571L69.2578 83.5235L72.257 83.4362L72.3731 86.6752L68.6304 90.7477L72.83 94.8492L72.9461 98.0883L70.0303 98.1174ZM76.7178 97.9172L76.6017 93.8157L80.4605 93.6992L80.5765 97.7717L76.7178 97.9136V97.9172Z" fill="#FCB017"/>
<path d="M65.7726 12.272H62.0589V6.82382C62.0589 5.1024 60.6881 3.72671 58.9727 3.72671H29.742C28.0266 3.72671 26.6557 5.1024 26.6557 6.82382V12.272H22.9421V6.30703C22.9421 2.80959 25.7708 0 29.227 0H59.484C62.9692 0 65.769 2.83871 65.769 6.30703V12.272H65.7726Z" fill="#FCB017"/>
<path d="M33.8002 91.9234C33.8582 94.1871 32.5418 96.0249 29.9705 96.1087H29.4265C29.111 96.0795 28.7991 96.0213 28.5126 95.9376C28.4256 95.9085 28.3131 95.8794 28.2261 95.8503C28.139 95.8211 28.0556 95.7629 27.9396 95.7338C26.6267 95.0751 25.7962 93.6994 25.7962 92.0908C25.7962 89.8526 27.4536 88.0475 29.597 88.0475H29.713C32.2843 87.9055 33.7132 89.6524 33.8002 91.9197V91.9234Z" fill="#FCB017"/>
<path d="M29.4011 96.0828C29.0856 96.0828 28.7737 96.0246 28.4872 95.9117C28.7737 95.9991 29.0856 96.0537 29.4011 96.0828Z" fill="#FCB017"/>
</svg>
