<svg width="86" height="106" viewBox="0 0 86 106" fill="none" xmlns="http://www.w3.org/2000/svg">
<path d="M52.5425 25.0897C50.2577 25.0315 49.0573 26.4072 48.9123 27.7283L55.7992 27.8993C55.8282 26.5528 54.7403 25.1189 52.5425 25.0897ZM52.5425 25.0897C50.2577 25.0315 49.0573 26.4072 48.9123 27.7283L55.7992 27.8993C55.8282 26.5528 54.7403 25.1189 52.5425 25.0897ZM52.5425 25.0897C50.2577 25.0315 49.0573 26.4072 48.9123 27.7283L55.7992 27.8993C55.8282 26.5528 54.7403 25.1189 52.5425 25.0897ZM52.5425 25.0897C50.2577 25.0315 49.0573 26.4072 48.9123 27.7283L55.7992 27.8993C55.8282 26.5528 54.7403 25.1189 52.5425 25.0897ZM52.5425 25.0897C50.2577 25.0315 49.0573 26.4072 48.9123 27.7283L55.7992 27.8993C55.8282 26.5528 54.7403 25.1189 52.5425 25.0897ZM52.5425 25.0897C50.2577 25.0315 49.0573 26.4072 48.9123 27.7283L55.7992 27.8993C55.8282 26.5528 54.7403 25.1189 52.5425 25.0897ZM52.5425 25.0897C50.2577 25.0315 49.0573 26.4072 48.9123 27.7283L55.7992 27.8993C55.8282 26.5528 54.7403 25.1189 52.5425 25.0897ZM52.5425 25.0897C50.2577 25.0315 49.0573 26.4072 48.9123 27.7283L55.7992 27.8993C55.8282 26.5528 54.7403 25.1189 52.5425 25.0897ZM52.5425 25.0897C50.2577 25.0315 49.0573 26.4072 48.9123 27.7283L55.7992 27.8993C55.8282 26.5528 54.7403 25.1189 52.5425 25.0897ZM52.5425 25.0897C50.2577 25.0315 49.0573 26.4072 48.9123 27.7283L55.7992 27.8993C55.8282 26.5528 54.7403 25.1189 52.5425 25.0897ZM52.5425 25.0897C50.2577 25.0315 49.0573 26.4072 48.9123 27.7283L55.7992 27.8993C55.8282 26.5528 54.7403 25.1189 52.5425 25.0897ZM52.5425 25.0897C50.2577 25.0315 49.0573 26.4072 48.9123 27.7283L55.7992 27.8993C55.8282 26.5528 54.7403 25.1189 52.5425 25.0897ZM31.3993 15.5692L31.1998 23.7104C32.2842 22.1637 34.2571 21.2721 36.4584 21.3303C40.4296 21.4176 41.9165 23.4229 41.8295 26.8366L41.601 35.9532L37.5138 35.8659L37.7132 27.6664C37.7423 26.0323 37.0568 24.9151 35.0005 24.8568C33.0023 24.7986 31.6278 25.8904 31.0874 27.4954L30.8879 35.6657L26.7754 35.5784L27.2613 15.5655H4.57315V43.0609H85.4904V15.5692H31.3993ZM19.4858 35.8404C16.1131 35.7531 14.4013 33.9479 14.4557 31.1675L14.6262 23.9979L11.112 23.5103L11.17 21.1592L14.6842 21.2466L14.7712 17.6036L18.8838 17.72L18.7968 21.363L23.6238 21.4795L23.5658 24.2309L18.7387 24.1144L18.5683 30.7089C18.5393 31.8553 19.0253 32.8015 20.3671 32.8307C21.6799 32.8598 22.6809 32.6887 23.7399 32.343L24.4543 35.3819C23.1415 35.6985 21.5131 35.8986 19.4822 35.8404H19.4858ZM59.774 30.2212L48.9159 29.9628C48.9739 31.768 50.4028 33.0599 52.858 33.1182C54.4574 33.1473 56.0857 32.8598 57.2861 32.2884L58.8565 35.4983C57.2281 36.3281 55.1718 36.7321 52.6549 36.6738C47.5994 36.5574 44.6546 33.7223 44.7707 29.0166C44.8867 24.4565 47.6284 21.6178 52.684 21.7634C57.6851 21.8798 59.8828 24.8313 59.7704 29.3915V30.2212H59.774ZM52.5425 25.0897C50.2577 25.0315 49.0573 26.4072 48.9123 27.7283L55.7992 27.8993C55.8282 26.5528 54.7403 25.1189 52.5425 25.0897ZM52.5425 25.0897C50.2577 25.0315 49.0573 26.4072 48.9123 27.7283L55.7992 27.8993C55.8282 26.5528 54.7403 25.1189 52.5425 25.0897ZM52.5425 25.0897C50.2577 25.0315 49.0573 26.4072 48.9123 27.7283L55.7992 27.8993C55.8282 26.5528 54.7403 25.1189 52.5425 25.0897ZM52.5425 25.0897C50.2577 25.0315 49.0573 26.4072 48.9123 27.7283L55.7992 27.8993C55.8282 26.5528 54.7403 25.1189 52.5425 25.0897ZM52.5425 25.0897C50.2577 25.0315 49.0573 26.4072 48.9123 27.7283L55.7992 27.8993C55.8282 26.5528 54.7403 25.1189 52.5425 25.0897ZM52.5425 25.0897C50.2577 25.0315 49.0573 26.4072 48.9123 27.7283L55.7992 27.8993C55.8282 26.5528 54.7403 25.1189 52.5425 25.0897ZM52.5425 25.0897C50.2577 25.0315 49.0573 26.4072 48.9123 27.7283L55.7992 27.8993C55.8282 26.5528 54.7403 25.1189 52.5425 25.0897ZM52.5425 25.0897C50.2577 25.0315 49.0573 26.4072 48.9123 27.7283L55.7992 27.8993C55.8282 26.5528 54.7403 25.1189 52.5425 25.0897ZM52.5425 25.0897C50.2577 25.0315 49.0573 26.4072 48.9123 27.7283L55.7992 27.8993C55.8282 26.5528 54.7403 25.1189 52.5425 25.0897ZM52.5425 25.0897C50.2577 25.0315 49.0573 26.4072 48.9123 27.7283L55.7992 27.8993C55.8282 26.5528 54.7403 25.1189 52.5425 25.0897ZM52.5425 25.0897C50.2577 25.0315 49.0573 26.4072 48.9123 27.7283L55.7992 27.8993C55.8282 26.5528 54.7403 25.1189 52.5425 25.0897Z" fill="#FCB017"/>
<path d="M0.25749 46.3618L0.170451 56.8577H3.42716V53.1019H7.68482V56.8577H12.7149V59.7255H7.68482V66.5784C7.68482 67.7539 8.1998 68.7293 9.59968 68.7293C10.9996 68.7293 12.0005 68.5291 13.0849 68.1288L13.9117 71.2841C12.5409 71.6553 10.8545 71.9137 8.74017 71.9137C5.22597 71.9137 3.39815 70.0795 3.39815 67.1826V59.7546L0.141438 59.3834L0 73.8899L80.8592 75.2365L81.1167 47.7411L0.25749 46.3618ZM20.5702 71.4224H16.3126V56.8577H20.5702V71.4224ZM20.5702 54.3611H16.3126V50.0885H20.5702V54.3611ZM49.2024 53.6478C48.1434 53.2475 47.0591 53.0182 45.6882 53.0182C44.2303 53.0182 43.5739 54.0809 43.5739 55.1982V56.8613H48.6294V59.7292H43.5993V71.4261H39.3706V59.7292H31.5117V71.4261H27.2831V59.7292L23.6275 59.3288V56.8613H27.2831V54.6231C27.2831 51.7262 29.227 49.8628 32.7702 49.8628C35.142 49.8628 36.6289 50.0921 37.8837 50.5216L37.1113 53.6769C36.0523 53.2766 34.9679 53.0473 33.5971 53.0473C32.1392 53.0473 31.4827 54.11 31.4827 55.2273V56.8905H39.3416V54.6522C39.3416 51.7553 41.2855 49.892 44.8287 49.892C47.1715 49.892 48.6584 50.1212 49.9423 50.5507L49.1988 53.6478H49.2024ZM55.5744 71.4224H51.3748V56.8577H55.5744V71.4224ZM55.5744 54.3611H51.3748V50.0885H55.5744V54.3611ZM75.8871 71.4224H71.6585V62.9354C71.6585 61.2431 70.886 60.0967 68.7717 60.0967C66.6574 60.0967 65.3155 61.2431 64.7715 62.9354V71.4224H60.5139V56.8577H63.7125L64.1115 59.2378C65.2248 57.5747 67.4842 56.3991 69.856 56.3991C74.0557 56.3991 75.8835 58.4335 75.8835 61.9601V71.4224H75.8871Z" fill="#FCB017"/>
<path d="M51.9441 91.3516C52.0312 93.6153 50.7437 95.4531 48.1724 95.5369C45.6302 95.6242 44.2013 93.8445 44.1143 91.61C44.0562 89.3718 45.3727 87.5084 47.915 87.4247C50.4862 87.3374 51.8861 89.117 51.9441 91.3516Z" fill="#FCB017"/>
<path d="M25.6874 78.5046L25.9448 86.8788C26.9748 85.3321 28.4581 84.3276 30.7719 84.2694C35.229 84.1275 37.7132 87.4538 37.8293 91.8393C37.9707 96.1701 35.802 99.6675 31.1418 99.8095C28.5995 99.8968 26.6847 98.8632 25.5423 97.1709L25.3138 99.5219L22.2856 99.6093L21.6292 78.5046H3.9131V106H84.8013V78.5046H25.6874ZM48.3139 99.2344C43.1423 99.4055 40.2555 96.4831 40.1141 91.7228C39.9726 86.9625 42.6853 83.8654 47.8569 83.7235C53.0285 83.5524 55.8863 86.4748 56.0277 91.2351C56.1438 95.9954 53.4564 99.0925 48.3139 99.2344ZM70.0301 98.1172L65.631 92.8692H65.3445L61.2573 98.3755L58.2871 98.4629L58.2 95.253L62.1422 90.893L58.2 87.0499L58.0586 83.8399L61.0578 83.7526L65.1704 88.7713H65.4569L69.2576 83.5233L72.2568 83.436L72.3729 86.675L68.6302 90.7474L72.8298 94.849L72.9459 98.088L70.0301 98.1172ZM76.7176 97.917L76.6015 93.8154L80.4603 93.699L80.5763 97.7714L76.7176 97.9134V97.917Z" fill="#FCB017"/>
<path d="M65.7724 12.2719H62.0588V6.8238C62.0588 5.10238 60.6879 3.7267 58.9725 3.7267H29.7419C28.0265 3.7267 26.6557 5.10238 26.6557 6.8238V12.2719H22.942V6.30701C22.942 2.80959 25.7708 0 29.2269 0H59.4839C62.9691 0 65.7688 2.8387 65.7688 6.30701V12.2719H65.7724Z" fill="#FCB017"/>
<path d="M33.8001 91.923C33.8582 94.1866 32.5417 96.0245 29.9704 96.1082H29.4264C29.1109 96.0791 28.799 96.0209 28.5125 95.9372C28.4255 95.9081 28.3131 95.8789 28.226 95.8498C28.139 95.8207 28.0556 95.7625 27.9395 95.7334C26.6267 95.0746 25.7962 93.699 25.7962 92.0904C25.7962 89.8522 27.4535 88.047 29.5969 88.047H29.7129C32.2842 87.9051 33.7131 89.652 33.8001 91.9193V91.923Z" fill="#FCB017"/>
<path d="M29.401 96.0828C29.0855 96.0828 28.7736 96.0245 28.4871 95.9117C28.7736 95.999 29.0855 96.0536 29.401 96.0828Z" fill="#FCB017"/>
</svg>
