<svg width="28" height="28" viewBox="0 0 28 28" fill="none" xmlns="http://www.w3.org/2000/svg">
<path d="M13.9999 24.8791C13.7277 24.8791 13.4555 24.8305 13.1833 24.7333C12.911 24.636 12.668 24.4902 12.4541 24.2958C11.1902 23.1291 10.0722 21.9916 9.09993 20.8833C8.12771 19.7749 7.3161 18.7008 6.6651 17.6609C6.0141 16.6211 5.51827 15.6197 5.1776 14.6568C4.83694 13.6939 4.66661 12.775 4.66661 11.9C4.66661 8.98329 5.60499 6.65968 7.48177 4.92913C9.35854 3.19858 11.5313 2.3333 13.9999 2.3333C16.4686 2.3333 18.6417 3.19858 20.5192 4.92913C22.3968 6.65968 23.3348 8.98329 23.3332 11.9C23.3332 12.775 23.1633 13.6939 22.8234 14.6568C22.4835 15.6197 21.9877 16.6211 21.3359 17.6609C20.6841 18.7008 19.8721 19.7749 18.8999 20.8833C17.9277 21.9916 16.8096 23.1291 15.5458 24.2958C15.3319 24.4902 15.0888 24.636 14.8166 24.7333C14.5444 24.8305 14.2721 24.8791 13.9999 24.8791ZM13.9999 14C14.6416 14 15.1911 13.7717 15.6484 13.3151C16.1058 12.8586 16.334 12.3091 16.3333 11.6666C16.3325 11.0242 16.1042 10.4751 15.6484 10.0193C15.1926 9.56351 14.6431 9.33485 13.9999 9.33329C13.3567 9.33174 12.8076 9.5604 12.3526 10.0193C11.8976 10.4782 11.6689 11.0273 11.6666 11.6666C11.6643 12.306 11.8929 12.8555 12.3526 13.3151C12.8123 13.7748 13.3614 14.0031 13.9999 14Z" fill="#FCB017"/>
</svg>
